<svg xmlns="http://www.w3.org/2000/svg" viewBox="0 0 640 512"><path fill="currentColor" d="M 523.92 416.81 C 512.609 418.182 479.755 365.198 479.755 365.198 C 479.755 395.852 463.919 435.908 429.491 464.897 C 446.016 469.989 483.395 483.7 474.542 498.587 C 467.361 510.633 351.095 506.324 317.553 502.504 C 284.011 506.226 167.745 510.633 160.565 498.587 C 151.712 483.603 188.992 469.989 205.616 464.897 C 171.287 436.006 155.352 395.95 155.352 365.198 C 155.352 365.198 122.597 418.182 111.186 416.81 C 105.875 416.125 98.989 387.821 120.334 319.169 C 130.466 286.85 141.974 259.917 159.778 215.553 C 156.925 101.164 204.435 5.089 317.553 5.089 C 429.393 5.089 478.083 99.205 475.23 215.651 C 493.034 259.917 504.641 287.046 514.674 319.266 C 536.118 387.919 529.134 416.321 523.822 416.908 L 523.92 416.81 Z"></path></svg>